<?xml version="1.0" standalone="no"?>
<!DOCTYPE svg PUBLIC "-//W3C//DTD SVG 20010904//EN"
 "http://www.w3.org/TR/2001/REC-SVG-20010904/DTD/svg10.dtd">
<svg version="1.0" xmlns="http://www.w3.org/2000/svg"
 width="192.000000pt" height="192.000000pt" viewBox="0 0 192.000000 192.000000"
 preserveAspectRatio="xMidYMid meet">
<metadata>
Created by potrace 1.11, written by Peter Selinger 2001-2013
</metadata>
<g transform="translate(0.000000,192.000000) scale(0.100000,-0.100000)"
fill="#000000" stroke="none">
<path d="M1292 1515 c-87 -73 -191 -84 -305 -33 -65 29 -82 32 -167 33 -52 0
-106 -1 -120 -2 -14 -1 -74 1 -133 3 -76 4 -113 2 -123 -7 -10 -8 -14 -36 -14
-105 l0 -94 -27 -1 c-16 -1 -82 -4 -148 -8 l-120 -6 -3 -189 c-2 -130 1 -193
9 -202 8 -9 33 -14 76 -14 57 0 63 -2 55 -17 -12 -24 -39 -146 -47 -210 -9
-84 -7 -85 219 -81 l191 3 -14 -94 c-13 -89 -13 -95 4 -107 26 -19 545 -20
563 -2 7 7 12 40 12 78 1 175 40 430 66 430 11 0 10 -8 -2 -42 -18 -52 -45
-223 -38 -242 8 -22 39 -26 215 -26 117 0 170 4 181 13 12 9 17 39 22 117 11
185 52 305 133 383 24 23 43 50 43 61 0 22 -117 162 -143 171 -11 4 -32 -5
-59 -24 -45 -33 -87 -39 -126 -18 l-23 13 21 19 c11 10 20 25 20 32 0 23 -150
193 -170 193 -10 0 -32 -11 -48 -25z m-368 -82 c23 -8 64 -23 91 -34 88 -33
199 -18 279 36 20 14 38 25 40 25 2 0 25 -25 50 -54 45 -53 46 -56 29 -75 -10
-12 -30 -21 -46 -21 -28 0 -29 1 -14 23 13 20 13 25 -3 45 l-18 22 -43 -24
c-56 -31 -150 -50 -210 -43 -26 3 -80 20 -121 38 -58 25 -87 31 -143 32 -78 1
-156 -26 -195 -68 -29 -31 -40 -24 -40 26 0 32 -3 39 -20 39 -19 0 -20 -7 -20
-165 l0 -165 24 0 c18 0 27 8 35 32 18 52 79 107 137 124 49 14 55 14 129 -11
93 -30 133 -31 208 -6 l57 18 0 -23 c0 -16 -13 -32 -42 -52 -105 -72 -215
-221 -278 -376 -34 -83 -80 -240 -80 -273 0 -10 39 -13 185 -13 l185 0 0 68
c0 68 10 156 31 270 10 54 14 62 34 62 l22 0 -19 -82 c-10 -46 -21 -147 -25
-225 l-6 -143 -229 0 c-126 0 -228 4 -228 9 0 31 36 186 60 261 44 135 111
259 201 372 12 14 19 33 16 41 -3 8 -43 26 -89 41 -71 22 -89 24 -121 15 -59
-16 -107 -65 -114 -117 l-6 -42 -63 0 -64 0 0 215 0 215 61 0 c41 0 65 -5 76
-16 9 -9 22 -12 32 -8 81 34 176 37 255 7z m780 -228 l38 -46 -33 -37 c-72
-82 -129 -258 -129 -402 l0 -71 -142 3 -143 3 3 35 c6 70 33 157 72 235 45 90
46 97 25 115 -13 11 -22 10 -50 -3 -29 -14 -35 -22 -35 -47 0 -30 0 -30 -55
-30 l-55 0 0 140 0 140 110 0 c86 0 120 -4 160 -20 66 -26 97 -25 151 4 24 14
44 25 44 25 1 1 18 -19 39 -44z m-1276 8 c3 -20 -1 -23 -35 -23 -21 0 -56 -9
-78 -20 -22 -11 -43 -20 -47 -20 -4 0 -8 9 -8 20 0 11 -4 20 -10 20 -6 0 -10
-37 -10 -90 0 -100 10 -113 45 -57 27 43 68 62 109 50 30 -8 31 -11 37 -73 4
-55 2 -70 -16 -100 -26 -42 -60 -131 -69 -183 l-7 -38 98 3 98 3 7 81 c8 100
24 163 44 171 24 9 27 -2 13 -59 -6 -29 -15 -96 -18 -148 l-6 -95 -143 -3
-142 -3 6 43 c13 88 37 165 75 238 21 42 39 81 39 88 0 7 -11 17 -24 23 -34
16 -76 -13 -76 -52 0 -28 -1 -29 -55 -29 l-55 0 0 140 0 141 113 -3 c108 -3
112 -4 115 -25z m430 -119 c2 -1 -14 -29 -36 -61 -56 -83 -108 -189 -143 -296
-17 -51 -34 -94 -36 -97 -11 -10 7 187 22 245 21 82 61 160 101 201 31 31 37
32 62 22 15 -7 29 -13 30 -14z"/>
<path d="M1240 1100 c0 -100 10 -113 45 -57 32 51 65 61 135 44 44 -12 69 -13
96 -6 42 12 57 3 29 -17 -48 -35 -105 -99 -133 -152 -27 -51 -72 -179 -72
-203 0 -6 42 -8 98 -7 l97 3 6 75 c12 135 47 245 105 332 42 62 34 78 -26 54
-54 -21 -98 -20 -160 4 -28 11 -63 20 -78 20 -15 0 -45 -9 -67 -20 -22 -11
-40 -20 -41 -20 -1 0 -4 9 -7 20 -3 11 -10 20 -16 20 -7 0 -11 -32 -11 -90z"/>
</g>
</svg>
